<svg viewBox="0 0 22 19" fill="none" xmlns="http://www.w3.org/2000/svg">
<path d="M10.9897 2.37744C10.2104 1.39307 8.27246 0.521484 6.10889 0.521484C3.26855 0.521484 0.97168 1.98779 0.407715 3.36182V17.6865C0.407715 18.4658 0.910156 18.7632 1.47412 18.7632C1.91504 18.7632 2.18164 18.6299 2.4585 18.4146C3.04297 17.9121 4.22217 17.2354 6.10889 17.2354C8.00586 17.2354 9.32861 17.8916 9.84131 18.353C10.1079 18.5684 10.4258 18.7632 10.9897 18.7632C11.5537 18.7632 11.8716 18.5479 12.1382 18.353C12.6919 17.9224 13.9839 17.2354 15.8706 17.2354C17.7676 17.2354 18.9468 17.9224 19.5312 18.4146C19.8081 18.6299 20.0645 18.7632 20.5054 18.7632C21.0693 18.7632 21.582 18.4658 21.582 17.6865V3.36182C21.0181 1.98779 18.7109 0.521484 15.8706 0.521484C13.7173 0.521484 11.7793 1.39307 10.9897 2.37744ZM2.05859 3.854C2.29443 3.21826 3.78125 2.06982 6.10889 2.06982C8.44678 2.06982 9.96436 3.22852 10.1694 3.854V16.8252C9.19531 16.0972 7.7085 15.687 6.10889 15.687C4.51953 15.687 3.03271 16.0972 2.05859 16.8662V3.854ZM19.9312 3.854V16.8662C18.9468 16.0972 17.4702 15.687 15.8706 15.687C14.271 15.687 12.7944 16.0972 11.8203 16.8252V3.854C12.0254 3.22852 13.543 2.06982 15.8706 2.06982C18.2085 2.06982 19.6953 3.21826 19.9312 3.854Z" fill="currentColor"/>
</svg>
