<svg viewBox="0 0 24 24" fill="none" xmlns="http://www.w3.org/2000/svg">
<path d="M19 13.586V10C19 6.783 16.815 4.073 13.855 3.258C13.562 2.52 12.846 2 12 2C11.154 2 10.438 2.52 10.145 3.258C7.185 4.074 5 6.783 5 10V13.586L3.293 15.293C3.10545 15.4805 3.00006 15.7348 3 16V18C3 18.2652 3.10536 18.5196 3.29289 18.7071C3.48043 18.8946 3.73478 19 4 19H20C20.2652 19 20.5196 18.8946 20.7071 18.7071C20.8946 18.5196 21 18.2652 21 18V16C20.9999 15.7348 20.8946 15.4805 20.707 15.293L19 13.586ZM19 17H5V16.414L6.707 14.707C6.89455 14.5195 6.99994 14.2652 7 14V10C7 7.243 9.243 5 12 5C14.757 5 17 7.243 17 10V14C17 14.266 17.105 14.52 17.293 14.707L19 16.414V17ZM12 22C12.6193 22.0008 13.2235 21.8086 13.7285 21.4502C14.2335 21.0917 14.6143 20.5849 14.818 20H9.182C9.38566 20.5849 9.76648 21.0917 10.2715 21.4502C10.7765 21.8086 11.3807 22.0008 12 22Z" fill="currentColor"/>
</svg>
