<svg viewBox="0 0 16 16" fill="none" xmlns="http://www.w3.org/2000/svg">
<g clip-path="url(#clip0_100_118)">
<path d="M8 0C5.87875 0 3.8425 0.843375 2.34375 2.34313C0.843465 3.84348 0.000429311 5.87823 0 8C0 10.1209 0.84375 12.1571 2.34375 13.6569C3.8425 15.1566 5.87875 16 8 16C10.1212 16 12.1575 15.1566 13.6562 13.6569C15.1562 12.1571 16 10.1209 16 8C16 5.87913 15.1562 3.84288 13.6562 2.34313C12.1575 0.843375 10.1212 0 8 0Z" fill="url(#paint0_linear_100_118)"/>
<path d="M3.62107 7.91553C5.95357 6.89953 7.50857 6.22969 8.28607 5.90603C10.5086 4.9819 10.9698 4.8214 11.2711 4.81597C11.3373 4.8149 11.4848 4.83128 11.5811 4.90909C11.6611 4.97472 11.6836 5.06347 11.6948 5.12578C11.7048 5.18803 11.7186 5.3299 11.7073 5.44065C11.5873 6.70565 11.0661 9.7754 10.8011 11.1923C10.6898 11.7918 10.4686 11.9928 10.2548 12.0124C9.78982 12.0552 9.43732 11.7054 8.98732 11.4105C8.28357 10.9489 7.88607 10.6617 7.20232 10.2113C6.41232 9.69078 6.92482 9.40465 7.37482 8.93715C7.49232 8.81478 9.53982 6.9529 9.57857 6.78403C9.58357 6.7629 9.58857 6.68415 9.54107 6.64265C9.49482 6.60103 9.42607 6.61528 9.37607 6.62653C9.30482 6.64253 8.18107 7.38603 6.00107 8.8569C5.68232 9.07615 5.39357 9.18303 5.13357 9.1774C4.84857 9.17128 4.29857 9.0159 3.88982 8.88315C3.38982 8.72028 2.99107 8.63415 3.02607 8.35753C3.04357 8.21353 3.24232 8.06615 3.62107 7.91553Z" fill="white"/>
</g>
<defs>
<linearGradient id="paint0_linear_100_118" x1="800" y1="0" x2="800" y2="1600" gradientUnits="userSpaceOnUse">
<stop stop-color="#2AABEE"/>
<stop offset="1" stop-color="#229ED9"/>
</linearGradient>
<clipPath id="clip0_100_118">
<rect width="16" height="16" fill="white"/>
</clipPath>
</defs>
</svg>
